<?xml version="1.0" standalone="no"?>
<!DOCTYPE svg PUBLIC "-//W3C//DTD SVG 20010904//EN"
 "http://www.w3.org/TR/2001/REC-SVG-20010904/DTD/svg10.dtd">
<svg version="1.0" xmlns="http://www.w3.org/2000/svg"
 width="260.000000pt" height="260.000000pt" viewBox="0 0 260.000000 260.000000"
 preserveAspectRatio="xMidYMid meet">
<metadata>
Created by potrace 1.11, written by Peter Selinger 2001-2013
</metadata>
<g transform="translate(0.000000,260.000000) scale(0.100000,-0.100000)"
fill="#000000" stroke="none">
<path d="M0 1300 l0 -1300 1300 0 1300 0 0 1300 0 1300 -1300 0 -1300 0 0
-1300z m1524 841 c246 -68 456 -246 565 -483 60 -130 76 -209 75 -373 -1 -121
-5 -152 -28 -228 -90 -300 -307 -517 -602 -602 -75 -22 -106 -25 -239 -25
-133 0 -164 3 -239 25 -397 115 -656 479 -633 888 7 124 27 206 78 315 66 143
177 276 301 360 82 56 211 112 304 132 118 26 303 22 418 -9z"/>
<path d="M731 1477 c-140 -371 -151 -395 -177 -401 -19 -5 -25 -12 -22 -29 3
-20 9 -22 86 -25 l82 -3 0 27 c0 18 -6 28 -21 31 -11 3 -18 11 -15 18 2 7 10
32 17 54 l12 42 125 -3 124 -3 19 -50 c10 -27 19 -51 19 -52 0 -1 -10 -3 -22
-5 -16 -2 -23 -10 -23 -28 1 -24 2 -25 83 -28 l82 -3 0 26 c0 17 -7 28 -22 34
-19 8 -42 59 -123 275 l-100 266 -35 0 -35 0 -54 -143z m137 -84 c23 -65 42
-121 42 -125 0 -5 -40 -8 -90 -8 -49 0 -90 3 -90 8 -1 14 84 242 90 242 3 0
25 -53 48 -117z"/>
<path d="M1393 1470 c-34 -8 -62 -25 -76 -47 -14 -22 -27 -14 -27 17 l0 30
-71 0 -70 0 3 -27 c2 -23 8 -29 36 -31 l32 -3 -2 -162 -3 -162 -30 -5 c-24 -4
-30 -10 -30 -30 l0 -25 105 0 105 0 0 25 c0 21 -5 26 -32 28 l-33 3 0 139 0
138 31 26 c58 49 148 29 164 -36 3 -13 4 -77 3 -143 l-3 -120 -30 -5 c-24 -4
-30 -10 -30 -30 l0 -25 105 0 105 0 0 25 c0 21 -5 26 -32 28 l-33 3 0 137 c0
113 -4 144 -19 179 -28 60 -96 89 -168 73z"/>
<path d="M1835 1471 c-71 -18 -115 -66 -115 -124 0 -65 52 -105 178 -137 116
-29 106 -130 -13 -130 -57 0 -92 19 -97 53 -2 17 -11 23 -35 25 l-33 3 0 -51
c0 -50 1 -51 43 -70 55 -25 174 -27 224 -3 43 20 73 66 73 112 0 48 -49 94
-125 116 -97 27 -130 46 -133 77 -5 39 28 68 78 68 56 0 90 -18 97 -52 5 -24
10 -28 38 -28 33 0 33 0 28 43 -2 23 -6 47 -8 53 -9 31 -139 60 -200 45z"/>
</g>
</svg>
